<?xml version="1.0" standalone="no"?>
<!DOCTYPE svg PUBLIC "-//W3C//DTD SVG 20010904//EN"
 "http://www.w3.org/TR/2001/REC-SVG-20010904/DTD/svg10.dtd">
<svg version="1.0" xmlns="http://www.w3.org/2000/svg"
 width="200.000000pt" height="200.000000pt" viewBox="0 0 200.000000 200.000000"
 preserveAspectRatio="xMidYMid meet">
<metadata>
Created by potrace 1.11, written by Peter Selinger 2001-2013
</metadata>
<g transform="translate(0.000000,200.000000) scale(0.100000,-0.100000)"
fill="#000000" stroke="none">
<path d="M130 1485 l0 -375 125 0 125 0 0 -245 0 -245 120 0 120 0 0 -125 0
-125 125 0 125 0 0 -120 0 -120 130 0 130 0 0 120 0 120 120 0 120 0 0 125 0
125 125 0 125 0 0 245 0 245 125 0 125 0 -2 373 -3 372 -252 3 -253 2 0 -125
0 -125 -125 0 -125 0 0 -120 0 -120 -115 0 -115 0 0 120 0 120 -120 0 -120 0
0 125 0 125 -255 0 -255 0 0 -375z"/>
</g>
</svg>
